<?xml version="1.0" encoding="utf-8"?>
<!-- Svg Vector Icons : http://www.onlinewebfonts.com/icon -->
<!DOCTYPE svg PUBLIC "-//W3C//DTD SVG 1.1//EN" "http://www.w3.org/Graphics/SVG/1.1/DTD/svg11.dtd">
<svg version="1.1" xmlns="http://www.w3.org/2000/svg" xmlns:xlink="http://www.w3.org/1999/xlink" x="0px" y="0px" viewBox="0 0 1000 1000" enable-background="new 0 0 1000 1000" xml:space="preserve">
<metadata> Svg Vector Icons : http://www.onlinewebfonts.com/icon </metadata>
<g><g transform="translate(0.000000,511.000000) scale(0.100000,-0.100000)"><path d="M1382.5,4987.8c-347.9-77.1-636.6-369.7-709.7-719.6c-29.7-142.3-29.7-8198.2,0-8326.7c57.3-247.1,257-508.1,474.5-616.8c241.2-120.6,13.8-114.6,3835.2-114.6c2239.8,0,3530.8,7.9,3597.9,19.8c262.9,49.4,541.7,253,656.3,480.4c118.6,233.3,112.7-45.5,112.7,4402.6c0,2730.1-7.9,4112-21.7,4171.3c-69.2,304.4-300.5,561.4-608.9,680.1l-110.7,41.5l-3558.4,4C2297.8,5011.5,1467.5,5007.6,1382.5,4987.8z M6488.8,4141.7c195.7-83,324.2-308.4,304.5-529.8c-11.9-140.4-67.2-249.1-172-344c-114.6-102.8-203.6-136.4-355.8-136.4c-156.2,0-245.1,35.6-361.8,142.3c-223.4,207.6-229.3,561.4-9.9,765.1C6065.8,4201,6265.4,4236.6,6488.8,4141.7z M8078.3,4133.8c185.8-89,290.6-257,290.6-472.5c0-225.4-110.7-395.4-314.3-486.3c-266.9-118.6-589.1,5.9-703.8,272.8c-53.4,124.5-51.4,314.3,5.9,434.9C7489.1,4165.4,7791.6,4270.2,8078.3,4133.8z M3701.4,4118c132.5-55.4,142.3-81.1,148.3-425c5.9-257,2-318.3-25.7-369.7c-69.2-128.5-49.4-126.5-1047.8-126.5c-988.5,0-986.5,0-1047.8,118.6c-41.5,81.1-43.5,628.6-2,709.7c61.3,118.6,73.1,120.6,1035.9,120.6C3456.3,4145.6,3650,4139.7,3701.4,4118z M5607.1,2032.3c270.8-59.3,464.6-128.5,727.5-259c804.6-399.3,1381.9-1148.6,1581.5-2056c43.5-197.7,61.3-769,31.6-996.4c-130.5-972.6-747.3-1828.6-1632.9-2263.6c-587.1-288.6-1188.1-375.6-1828.6-266.9c-1330.5,227.3-2364.4,1372-2449.4,2716.3c-53.4,846.1,229.3,1644.8,800.6,2249.7c452.7,482.4,1045.8,794.7,1717.9,905.4C4790.7,2101.5,5371.9,2083.7,5607.1,2032.3z"/><path d="M4585.1,1348.3c-318.3-59.3-684-219.4-935.1-409.2c-71.2-51.4-207.6-179.9-304.4-280.7c-527.8-559.5-731.5-1348.2-539.7-2097.5c237.2-927.2,1012.2-1593.4,1969-1694.2c1053.7-108.7,2058,545.6,2378.2,1555.8c81,255,108.7,440.8,106.7,721.6c-2,243.2-31.6,440.8-96.9,636.6l-29.6,94.9l-100.8-148.3c-444.8-666.2-1431.3-674.1-1882-15.8c-342,502.1-237.2,1192.1,233.3,1542c108.7,79.1,108.7,81,55.4,92.9C5320.5,1376,4735.3,1378,4585.1,1348.3z"/></g></g>
</svg>